<svg xmlns="http://www.w3.org/2000/svg" fill="none" viewBox="0 0 180 52">
  <path fill="#000" d="M179 46c0 2.77-2.3 5.02-5.13 5.02H6.13A5.08 5.08 0 0 1 1 46V6C1 3.23 3.3.98 6.13.98h167.74A5.07 5.07 0 0 1 179 6v40Z"/>
  <path fill="#A6A6A6" d="M173.33 1.04c3.09 0 5.6 2.45 5.6 5.46v39a5.54 5.54 0 0 1-5.6 5.46H6.67a5.54 5.54 0 0 1-5.6-5.46v-39a5.54 5.54 0 0 1 5.6-5.46h166.66Zm0-1.04H6.67A6.6 6.6 0 0 0 0 6.5v39C0 49.07 3 52 6.67 52h166.66a6.6 6.6 0 0 0 6.67-6.5v-39c0-3.57-3-6.5-6.67-6.5Z"/>
  <path fill="#fff" d="M40.17 25.72c-.04-4.2 3.52-6.23 3.68-6.32a7.99 7.99 0 0 0-6.23-3.29c-2.63-.27-5.17 1.53-6.5 1.53-1.37 0-3.43-1.5-5.64-1.46a8.33 8.33 0 0 0-6.99 4.15c-3.02 5.1-.77 12.6 2.13 16.72 1.45 2.02 3.14 4.27 5.35 4.2 2.17-.1 2.98-1.35 5.6-1.35 2.58 0 3.34 1.34 5.6 1.3 2.33-.04 3.8-2.03 5.19-4.07a16.5 16.5 0 0 0 2.37-4.71c-.05-.02-4.52-1.68-4.56-6.7ZM35.9 13.4a7.3 7.3 0 0 0 1.75-5.32 7.82 7.82 0 0 0-5.02 2.53c-1.07 1.22-2.03 3.23-1.78 5.12 1.9.14 3.84-.93 5.05-2.33Zm35.63 27.56H68.5l-1.66-5.09h-5.77l-1.58 5.09h-2.94l5.7-17.3h3.54l5.74 17.3Zm-5.19-7.22-1.5-4.52c-.16-.46-.46-1.54-.9-3.26h-.05c-.17.74-.45 1.83-.84 3.26l-1.47 4.52h4.76Zm19.88.82c0 2.13-.6 3.8-1.77 5.03a5.22 5.22 0 0 1-3.92 1.65c-1.69 0-2.9-.6-3.63-1.77h-.06v6.57H74V32.59c0-1.34-.04-2.7-.1-4.11h2.5l.15 1.98h.06a4.77 4.77 0 0 1 4.31-2.24c1.51 0 2.77.59 3.78 1.75a6.76 6.76 0 0 1 1.52 4.6Zm-2.9.1c0-1.2-.28-2.2-.84-3A2.93 2.93 0 0 0 80 30.43a3.14 3.14 0 0 0-3.03 2.46 4.1 4.1 0 0 0-.13.85v2.08c0 .9.29 1.67.86 2.3.57.62 1.31.94 2.22.94 1.07 0 1.9-.4 2.5-1.21.6-.8.9-1.87.9-3.18Zm17.61-.1c0 2.13-.59 3.8-1.76 5.03a5.22 5.22 0 0 1-3.92 1.65c-1.69 0-2.9-.6-3.64-1.77h-.05v6.57h-2.84V32.59c0-1.34-.04-2.7-.1-4.11h2.5l.15 1.98h.05a4.76 4.76 0 0 1 4.32-2.24c1.51 0 2.77.59 3.78 1.75 1 1.16 1.51 2.7 1.51 4.6Zm-2.9.1c0-1.2-.28-2.2-.84-3a2.93 2.93 0 0 0-2.47-1.23 3.14 3.14 0 0 0-3.03 2.46 4.1 4.1 0 0 0-.13.85v2.08c0 .9.29 1.67.85 2.3a2.9 2.9 0 0 0 2.23.94c1.07 0 1.9-.4 2.5-1.21.6-.8.9-1.87.9-3.18Zm19.36 1.44c0 1.48-.53 2.67-1.58 3.6-1.16 1-2.77 1.51-4.83 1.51a8.63 8.63 0 0 1-4.6-1.08l.66-2.3a7.94 7.94 0 0 0 4.1 1.1c1.08 0 1.91-.24 2.5-.7.6-.48.9-1.11.9-1.9 0-.7-.24-1.3-.73-1.77a6.9 6.9 0 0 0-2.45-1.34c-3.11-1.13-4.66-2.78-4.66-4.96 0-1.42.54-2.59 1.63-3.5a6.55 6.55 0 0 1 4.34-1.36 8.8 8.8 0 0 1 4.03.82l-.7 2.26c-1-.53-2.14-.8-3.4-.8-1 0-1.79.25-2.35.73a2 2 0 0 0-.7 1.56c0 .69.26 1.25.8 1.7.48.4 1.34.85 2.59 1.33a8.8 8.8 0 0 1 3.37 2.1c.72.8 1.08 1.8 1.08 3Zm9.39-5.54h-3.13v6.06c0 1.54.55 2.3 1.66 2.3.5 0 .93-.04 1.26-.12l.08 2.1c-.56.2-1.3.31-2.21.31-1.12 0-2-.33-2.63-1-.63-.67-.95-1.79-.95-3.36v-6.3h-1.87v-2.07h1.87v-2.29l2.8-.82v3.1h3.12v2.09Zm14.14 4.06c0 1.91-.56 3.49-1.68 4.72a6.1 6.1 0 0 1-4.7 1.9 5.8 5.8 0 0 1-4.48-1.82 6.53 6.53 0 0 1-1.67-4.6 6.7 6.7 0 0 1 1.72-4.75 6.04 6.04 0 0 1 4.65-1.84c1.88 0 3.39.6 4.53 1.82a6.46 6.46 0 0 1 1.63 4.57Zm-2.95.08a5.5 5.5 0 0 0-.76-2.96c-.6-1-1.45-1.49-2.55-1.49-1.15 0-2.01.5-2.6 1.5a5.6 5.6 0 0 0-.77 3c0 1.16.25 2.14.76 2.97.62 1 1.47 1.49 2.58 1.49 1.09 0 1.94-.5 2.55-1.52.53-.84.8-1.84.8-2.99Zm12.19-3.78a5.07 5.07 0 0 0-.9-.08c-1 0-1.77.37-2.31 1.1a4.08 4.08 0 0 0-.71 2.47v6.55h-2.84l.02-8.55c0-1.44-.03-2.75-.1-3.93h2.47l.1 2.39h.09c.3-.82.77-1.48 1.42-1.98a3.5 3.5 0 0 1 2.05-.67c.26 0 .5.02.71.06v2.64Zm12.72 3.21c0 .5-.04.91-.1 1.25h-8.54a3.58 3.58 0 0 0 1.24 2.83 4.3 4.3 0 0 0 2.79.87c1.26 0 2.41-.2 3.45-.59l.44 1.93a10.9 10.9 0 0 1-4.28.77c-1.99 0-3.54-.57-4.68-1.71a6.22 6.22 0 0 1-1.7-4.58c0-1.88.53-3.45 1.59-4.7a5.5 5.5 0 0 1 4.47-2 4.8 4.8 0 0 1 4.19 2 6.63 6.63 0 0 1 1.13 3.93Zm-2.72-.72a3.7 3.7 0 0 0-.55-2.13 2.5 2.5 0 0 0-2.26-1.16c-.93 0-1.69.38-2.27 1.13-.47.6-.75 1.32-.84 2.16h5.92ZM65.4 13.01c0 1.53-.47 2.68-1.41 3.46-.87.71-2.1 1.07-3.71 1.07-.8 0-1.48-.04-2.05-.1V9.08c.75-.12 1.55-.18 2.41-.18 1.53 0 2.68.32 3.45.97a3.88 3.88 0 0 1 1.31 3.14Zm-1.47.04c0-1-.27-1.75-.81-2.28-.54-.53-1.33-.8-2.36-.8-.44 0-.82.03-1.13.1v6.35c.17.02.49.03.95.03 1.07 0 1.89-.29 2.47-.87.58-.58.88-1.42.88-2.53Zm9.28 1.3c0 .94-.27 1.71-.83 2.32a3 3 0 0 1-2.3.93c-.92 0-1.66-.3-2.2-.9a3.21 3.21 0 0 1-.82-2.25c0-.95.28-1.73.84-2.33a3 3 0 0 1 2.28-.91c.93 0 1.67.3 2.23.9.53.57.8 1.32.8 2.24Zm-1.45.04a2.7 2.7 0 0 0-.37-1.45c-.3-.5-.71-.74-1.26-.74-.56 0-.98.25-1.28.74-.25.4-.37.9-.37 1.48 0 .56.12 1.05.37 1.45.3.49.73.73 1.27.73.53 0 .95-.24 1.25-.74.26-.41.4-.9.4-1.47Zm11.93-3.06-1.97 6.13h-1.28l-.81-2.66a18 18 0 0 1-.51-1.98h-.03a14.2 14.2 0 0 1-.5 1.98l-.87 2.66h-1.3l-1.84-6.13h1.44l.7 2.92c.18.69.32 1.34.43 1.96h.03c.1-.5.27-1.16.52-1.95l.89-2.92h1.14l.85 2.86c.2.7.38 1.37.5 2.02h.05c.09-.63.23-1.3.42-2.02l.76-2.86h1.38Zm7.24 6.13h-1.4v-3.5c0-1.09-.42-1.63-1.26-1.63-.42 0-.75.15-1.01.45-.26.3-.4.64-.4 1.05v3.63h-1.39V13.1c0-.54-.02-1.13-.05-1.76h1.23l.06.96h.04a2 2 0 0 1 .73-.74c.38-.23.8-.34 1.26-.34.59 0 1.08.18 1.47.55.48.45.72 1.13.72 2.03v3.67Zm3.85 0h-1.4V8.52h1.4v8.94Zm8.23-3.11c0 .94-.28 1.71-.83 2.32a3 3 0 0 1-2.3.93c-.92 0-1.66-.3-2.2-.9a3.21 3.21 0 0 1-.83-2.25c0-.95.29-1.73.85-2.33a3 3 0 0 1 2.28-.91c.93 0 1.67.3 2.23.9.53.57.8 1.32.8 2.24Zm-1.45.04a2.7 2.7 0 0 0-.38-1.45c-.29-.5-.7-.74-1.25-.74-.56 0-.99.25-1.28.74-.25.4-.37.9-.37 1.48 0 .56.12 1.05.37 1.45.3.49.73.73 1.27.73.53 0 .95-.24 1.25-.74.26-.41.39-.9.39-1.47Zm8.21 3.07h-1.25l-.1-.7h-.04a2.2 2.2 0 0 1-1.84.84c-.6 0-1.07-.18-1.44-.55a1.77 1.77 0 0 1-.49-1.25c0-.75.32-1.32.97-1.72.64-.4 1.54-.58 2.7-.58v-.11c0-.8-.43-1.21-1.3-1.21-.62 0-1.16.15-1.64.45l-.28-.9c.58-.34 1.3-.52 2.16-.52 1.64 0 2.46.84 2.46 2.53V16c0 .61.03 1.1.1 1.46Zm-1.45-2.1v-.95c-1.54-.02-2.3.39-2.3 1.24 0 .32.08.56.26.72a1 1 0 0 0 .68.23c.3 0 .6-.09.86-.28a1.16 1.16 0 0 0 .5-.96Zm9.39 2.1h-1.24l-.06-.98h-.04c-.4.75-1.07 1.12-2.02 1.12-.76 0-1.39-.29-1.89-.87a3.33 3.33 0 0 1-.75-2.25c0-1 .27-1.8.82-2.41a2.53 2.53 0 0 1 1.94-.86c.84 0 1.43.28 1.77.83h.03V8.52h1.4v7.3c0 .59.01 1.14.04 1.64Zm-1.44-2.58v-1.02a1.54 1.54 0 0 0-.54-1.25 1.4 1.4 0 0 0-.94-.34c-.53 0-.93.2-1.23.6-.3.4-.45.92-.45 1.55 0 .61.14 1.1.43 1.48.3.4.7.6 1.22.6.46 0 .82-.16 1.1-.5.27-.31.4-.68.4-1.12Zm13.39-.53c0 .94-.27 1.71-.82 2.32a3 3 0 0 1-2.3.93c-.93 0-1.66-.3-2.21-.9a3.21 3.21 0 0 1-.82-2.25c0-.95.28-1.73.84-2.33.57-.6 1.33-.91 2.29-.91.92 0 1.66.3 2.22.9.54.57.8 1.32.8 2.24Zm-1.44.04a2.7 2.7 0 0 0-.38-1.45c-.3-.5-.71-.74-1.25-.74-.56 0-.99.25-1.28.74-.26.4-.38.9-.38 1.48 0 .56.13 1.05.38 1.45.3.49.72.73 1.26.73s.96-.24 1.26-.74c.26-.41.39-.9.39-1.47Zm8.96 3.07h-1.4v-3.5c0-1.09-.42-1.63-1.27-1.63-.41 0-.75.15-1 .45-.26.3-.4.64-.4 1.05v3.63h-1.4V13.1c0-.54 0-1.13-.04-1.76h1.23l.06.96h.04a2 2 0 0 1 .72-.74c.38-.23.8-.34 1.27-.34.59 0 1.07.18 1.46.55.49.45.73 1.13.73 2.03v3.67Zm9.4-5.1h-1.54v2.97c0 .76.28 1.14.82 1.14.25 0 .46-.02.62-.07l.04 1.04c-.28.1-.64.15-1.09.15a1.7 1.7 0 0 1-1.3-.5c-.3-.32-.46-.87-.46-1.64v-3.1h-.92v-1.02h.92v-1.12l1.37-.4v1.52h1.54v1.03Zm7.4 5.1h-1.4v-3.48c0-1.1-.42-1.65-1.27-1.65-.64 0-1.09.32-1.33.96-.04.13-.06.3-.06.49v3.68h-1.4V8.52h1.4v3.7h.02a2.11 2.11 0 0 1 1.89-1.01c.58 0 1.06.18 1.44.55.47.47.7 1.15.7 2.06v3.64Zm7.62-3.36c0 .25 0 .46-.04.63h-4.2c.02.6.22 1.06.61 1.38.36.29.81.43 1.38.43.62 0 1.18-.1 1.69-.29l.22.95c-.6.25-1.3.38-2.11.38-.97 0-1.74-.28-2.3-.84a3.04 3.04 0 0 1-.83-2.25c0-.93.26-1.7.78-2.3a2.7 2.7 0 0 1 2.2-1c.9 0 1.59.34 2.05 1 .37.51.56 1.15.56 1.92Zm-1.32-.34a1.8 1.8 0 0 0-.28-1.05c-.24-.38-.6-.57-1.1-.57-.46 0-.84.19-1.12.56a2 2 0 0 0-.41 1.06h2.9Z"/>
</svg>
