<svg xmlns="http://www.w3.org/2000/svg" fill="none" viewBox="0 0 180 52">
  <path fill="#000" d="M173.095 52H6.657C2.997 52 0 49.073 0 45.5v-39C0 2.927 2.998 0 6.657 0h166.438c3.66 0 6.658 2.927 6.658 6.5v39c0 3.573-2.998 6.5-6.658 6.5Z"/>
  <path fill="#A6A6A6" d="M173.095 1.042c3.082 0 5.591 2.449 5.591 5.458v39c0 3.01-2.509 5.458-5.591 5.458H6.657c-3.082 0-5.59-2.448-5.59-5.458v-39c0-3.01 2.508-5.458 5.59-5.458h166.438Zm0-1.042H6.657C2.997 0 0 2.927 0 6.5v39C0 49.073 2.998 52 6.657 52h166.438c3.66 0 6.658-2.927 6.658-6.5v-39c0-3.573-2.998-6.5-6.658-6.5Z"/>
  <path fill="#fff" stroke="#fff" stroke-miterlimit="10" stroke-width=".16" d="M63.136 13.317c0 1.085-.333 1.955-.989 2.603-.753.769-1.736 1.156-2.939 1.156-1.15 0-2.132-.394-2.938-1.169-.807-.786-1.21-1.752-1.21-2.907s.403-2.12 1.21-2.9c.806-.782 1.788-1.175 2.938-1.175a4.27 4.27 0 0 1 1.64.33c.519.216.942.508 1.248.869l-.696.686c-.534-.616-1.261-.92-2.192-.92a3.09 3.09 0 0 0-2.183.863c-.611.578-.918 1.327-.918 2.247 0 .92.307 1.675.918 2.254.617.57 1.344.863 2.183.863.89 0 1.64-.293 2.23-.87.39-.381.611-.908.67-1.58h-2.9v-.94h3.868c.047.203.06.4.06.59Zm6.137-3.257H65.64v2.47h3.275v.94H65.64v2.47h3.633v.957h-4.662V9.103h4.662v.957Zm4.331 6.837h-1.029V10.06h-2.228v-.957h5.487v.957h-2.23v6.837Zm6.201 0V9.103h1.027v7.794h-1.027Zm5.579 0h-1.02V10.06h-2.237v-.957h5.494v.957h-2.237v6.837Zm12.626-1.003c-.787.788-1.763 1.182-2.926 1.182-1.17 0-2.145-.394-2.933-1.182-.785-.786-1.176-1.752-1.176-2.894 0-1.142.39-2.108 1.176-2.894.788-.788 1.763-1.181 2.933-1.181 1.157 0 2.132.393 2.92 1.187.791.793 1.183 1.752 1.183 2.888 0 1.142-.391 2.108-1.177 2.894Zm-5.098-.653c.592.583 1.313.876 2.172.876.852 0 1.58-.293 2.165-.876.591-.583.89-1.333.89-2.24 0-.91-.299-1.658-.89-2.242-.586-.583-1.313-.876-2.165-.876-.859 0-1.58.293-2.172.876-.59.584-.89 1.333-.89 2.241 0 .908.3 1.658.89 2.24Zm7.718 1.656V9.103h1.248l3.881 6.062h.045l-.045-1.499V9.103h1.027v7.794h-1.071l-4.065-6.36h-.045l.045 1.504v4.856h-1.02Z"/>
  <path fill="#fff" d="M90.722 28.278c-3.128 0-5.683 2.324-5.683 5.53 0 3.18 2.555 5.528 5.683 5.528 3.134 0 5.688-2.348 5.688-5.528 0-3.206-2.554-5.53-5.688-5.53Zm0 8.88c-1.716 0-3.193-1.382-3.193-3.35 0-1.994 1.477-3.352 3.193-3.352s3.199 1.358 3.199 3.352c0 1.968-1.484 3.35-3.2 3.35Zm-12.398-8.88c-3.134 0-5.683 2.324-5.683 5.53 0 3.18 2.549 5.528 5.683 5.528 3.132 0 5.682-2.348 5.682-5.528 0-3.206-2.55-5.53-5.682-5.53Zm0 8.88c-1.718 0-3.2-1.382-3.2-3.35 0-1.994 1.482-3.352 3.2-3.352 1.716 0 3.192 1.358 3.192 3.352 0 1.968-1.476 3.35-3.192 3.35ZM63.57 29.974v2.35h5.747c-.168 1.313-.618 2.278-1.307 2.95-.839.813-2.145 1.715-4.44 1.715-3.537 0-6.307-2.787-6.307-6.24 0-3.453 2.77-6.24 6.307-6.24 1.912 0 3.303.73 4.33 1.676l1.696-1.656c-1.436-1.34-3.347-2.368-6.026-2.368-4.85 0-8.926 3.853-8.926 8.588 0 4.735 4.076 8.588 8.926 8.588 2.621 0 4.59-.838 6.138-2.411 1.586-1.549 2.08-3.726 2.08-5.484a7.62 7.62 0 0 0-.13-1.468H63.57Zm60.327 1.822c-.468-1.237-1.911-3.517-4.85-3.517-2.913 0-5.338 2.241-5.338 5.53 0 3.097 2.4 5.528 5.617 5.528a5.643 5.643 0 0 0 4.72-2.45l-1.93-1.256c-.644.92-1.522 1.529-2.79 1.529-1.26 0-2.164-.564-2.743-1.675l7.575-3.06-.261-.63Zm-7.723 1.84a3.067 3.067 0 0 1 2.957-3.223c.989 0 1.828.483 2.108 1.173l-5.065 2.05ZM110.018 39h2.49V22.75h-2.49V39Zm-4.077-9.49h-.084c-.559-.647-1.626-1.232-2.977-1.232-2.836 0-5.43 2.431-5.43 5.548 0 3.099 2.594 5.51 5.43 5.51 1.351 0 2.418-.59 2.977-1.256h.084v.793c0 2.114-1.157 3.25-3.023 3.25-1.521 0-2.465-1.072-2.854-1.974l-2.166.882c.624 1.466 2.277 3.27 5.02 3.27 2.919 0 5.383-1.677 5.383-5.758v-9.928h-2.36v.895Zm-2.848 7.649c-1.716 0-3.153-1.402-3.153-3.333 0-1.948 1.437-3.37 3.153-3.37 1.691 0 3.024 1.422 3.024 3.37 0 1.93-1.333 3.333-3.024 3.333Zm32.462-14.409H129.6V39h2.483v-6.157h3.472c2.758 0 5.462-1.949 5.462-5.047s-2.711-5.046-5.462-5.046Zm.065 7.832h-3.537V25.01h3.537a2.853 2.853 0 0 1 2.912 2.786c0 1.257-1.058 2.787-2.912 2.787Zm15.35-2.335c-1.794 0-3.66.774-4.427 2.488l2.204.902c.474-.902 1.346-1.194 2.268-1.194 1.288 0 2.595.755 2.615 2.09v.17c-.449-.253-1.411-.629-2.595-.629-2.373 0-4.792 1.276-4.792 3.657 0 2.177 1.944 3.58 4.13 3.58 1.671 0 2.593-.737 3.172-1.593h.085v1.256h2.398v-6.233c0-2.882-2.203-4.494-5.058-4.494Zm-.299 8.905c-.813 0-1.944-.393-1.944-1.376 0-1.258 1.411-1.74 2.633-1.74 1.093 0 1.606.235 2.27.546-.195 1.504-1.521 2.57-2.959 2.57Zm14.095-8.549-2.854 7.045h-.085l-2.951-7.045h-2.678l4.434 9.844-2.53 5.478h2.595l6.832-15.322h-2.763ZM142.382 39h2.49V22.75h-2.49V39Z"/>
  <path fill="url(#a)" d="M13.894 9.8c-.391.4-.618 1.023-.618 1.829v28.75c0 .805.227 1.427.618 1.827l.096.088L30.491 26.19v-.38l-16.5-16.104-.097.094Z"/>
  <path fill="url(#b)" d="m35.985 31.56-5.494-5.37v-.38l5.501-5.37.123.07 6.514 3.618c1.86 1.027 1.86 2.717 0 3.75l-6.514 3.613-.13.07Z"/>
  <path fill="url(#c)" d="m36.116 31.491-5.624-5.49-16.598 16.205c.618.634 1.625.71 2.77.077L36.116 31.49Z"/>
  <path fill="url(#d)" d="M36.116 20.51 16.664 9.717c-1.145-.628-2.152-.551-2.77.082L30.492 26l5.624-5.49Z"/>
  <defs>
    <linearGradient id="a" x1="29.026" x2="7.215" y1="40.678" y2="18.338" gradientUnits="userSpaceOnUse">
      <stop stop-color="#00A0FF"/>
      <stop offset=".007" stop-color="#00A1FF"/>
      <stop offset=".26" stop-color="#00BEFF"/>
      <stop offset=".512" stop-color="#00D2FF"/>
      <stop offset=".76" stop-color="#00DFFF"/>
      <stop offset="1" stop-color="#00E3FF"/>
    </linearGradient>
    <linearGradient id="b" x1="45.05" x2="12.832" y1="25.998" y2="25.998" gradientUnits="userSpaceOnUse">
      <stop stop-color="#FFE000"/>
      <stop offset=".409" stop-color="#FFBD00"/>
      <stop offset=".775" stop-color="orange"/>
      <stop offset="1" stop-color="#FF9C00"/>
    </linearGradient>
    <linearGradient id="c" x1="33.057" x2="3.48" y1="23.015" y2="-7.279" gradientUnits="userSpaceOnUse">
      <stop stop-color="#FF3A44"/>
      <stop offset="1" stop-color="#C31162"/>
    </linearGradient>
    <linearGradient id="d" x1="9.717" x2="22.924" y1="51.771" y2="38.243" gradientUnits="userSpaceOnUse">
      <stop stop-color="#32A071"/>
      <stop offset=".069" stop-color="#2DA771"/>
      <stop offset=".476" stop-color="#15CF74"/>
      <stop offset=".801" stop-color="#06E775"/>
      <stop offset="1" stop-color="#00F076"/>
    </linearGradient>
  </defs>
</svg>
